<?xml version="1.0" encoding="UTF-8"?>
<svg width="15px" height="29px" viewBox="0 0 15 29" version="1.1" xmlns="http://www.w3.org/2000/svg" xmlns:xlink="http://www.w3.org/1999/xlink">
    <!-- Generator: Sketch 47.1 (45422) - http://www.bohemiancoding.com/sketch -->
    <title>Facebook</title>
    <desc>Created with Sketch.</desc>
    <defs></defs>
    <g id="Home" stroke="none" stroke-width="1" fill="none" fill-rule="evenodd">
        <g id="01" transform="translate(-1180.000000, -2303.000000)" fill="#E3E3E3">
            <g id="Facebook" transform="translate(1180.000000, 2303.000000)">
                <path d="M1.28715837,14.9343702 L4.36113424,14.9343702 L4.36113424,27.5886706 C4.36113424,27.8384092 4.56355397,28.040829 4.81329261,28.040829 L10.0253817,28.040829 C10.2751203,28.040829 10.4775401,27.8384092 10.4775401,27.5886706 L10.4775401,14.993957 L14.0106845,14.993957 C14.2402688,14.993957 14.4339258,14.8222069 14.460214,14.5934989 L14.9964949,9.93521621 C15.0113916,9.80640365 14.9710829,9.67846737 14.8852079,9.58207702 C14.7993328,9.48568667 14.6766542,9.43135756 14.5478416,9.43135756 L10.4775401,9.43135756 L10.4775401,6.51072997 C10.4775401,5.63007269 10.9516053,5.18404825 11.8865917,5.18404825 L14.5478416,5.18404825 C14.796704,5.18404825 15,4.98162852 15,4.73188989 L15,0.45566347 C15,0.205924838 14.796704,0.00350510362 14.5478416,0.00350510362 L10.8797507,0.00350510362 C10.8543387,0.00175255181 10.7965045,0 10.712382,0 C10.0753294,0 7.86360903,0.125307454 6.11631488,1.73239746 C4.1806214,3.51386638 4.44963811,5.64584565 4.51448252,6.01563409 L4.51448252,9.43048129 L1.28715837,9.43048129 C1.03741973,9.43048129 0.835,9.6337773 0.835,9.88263965 L0.835,14.4822119 C0.835,14.7319505 1.03741973,14.9343702 1.28715837,14.9343702" id="Fill-1"></path>
            </g>
        </g>
    </g>
</svg>