<?xml version="1.0" encoding="UTF-8"?>
<svg width="168px" height="49px" viewBox="0 0 168 49" version="1.1" xmlns="http://www.w3.org/2000/svg" xmlns:xlink="http://www.w3.org/1999/xlink">
    <!-- Generator: Sketch 47.1 (45422) - http://www.bohemiancoding.com/sketch -->
    <title>SPINDOGS</title>
    <desc>Created with Sketch.</desc>
    <defs></defs>
    <g id="Home" stroke="none" stroke-width="1" fill="none" fill-rule="evenodd">
        <g id="01" transform="translate(-48.000000, -36.000000)" fill-rule="nonzero" fill="#FFFFFF">
            <g id="SPINDOGS" transform="translate(48.000000, 36.000000)">
                <polygon id="Shape" points="45.5205882 37.4291772 52.6605882 37.4291772 52.6605882 10.6156329 45.5205882 11.7693038"></polygon>
                <path d="M73.71,14.4518987 C72.8139422,13.3633733 71.6488979,12.5302848 70.3314706,12.0360127 C68.9108824,11.4674473 67.1310294,11.1831646 64.9919118,11.1831646 C62.9713399,11.1772922 60.9535046,11.3328461 58.9575,11.6483544 C57.374024,11.8850311 55.806405,12.2185201 54.2633824,12.646962 L54.2633824,37.4291772 L61.4033824,37.4291772 L61.4033824,17.6244937 C61.8501471,17.5604008 62.3648529,17.5035443 62.9475,17.4539241 C63.5301471,17.4043038 64.0726471,17.3805274 64.575,17.3825949 C66.2344118,17.3825949 67.3667647,17.8705274 67.9720588,18.8463924 C68.5773529,19.8222574 68.8810294,21.4762658 68.8830882,23.8084177 L68.8830882,37.4198734 L76.02,37.4198734 L76.02,22.9493671 C76.0362143,21.3397853 75.8589026,19.7341221 75.4919118,18.1672152 C75.1804043,16.8110146 74.5751766,15.5403913 73.7192647,14.4456962" id="Shape"></path>
                <path d="M117.819265,30.6839241 C117.0225,32.0588186 115.713088,32.7462658 113.891029,32.7462658 C112.101912,32.7462658 110.808971,32.0588186 110.012206,30.6839241 C109.215441,29.3090295 108.817059,27.3293882 108.817059,24.745 C108.817059,22.1606118 109.215441,20.1820042 110.012206,18.8091772 C110.808971,17.4363502 112.101912,16.748903 113.891029,16.7468354 C115.713088,16.7468354 117.0225,17.4342827 117.819265,18.8091772 C118.616029,20.1840717 119.014412,22.1626793 119.014412,24.745 C119.014412,27.3293882 118.616029,29.3090295 117.819265,30.6839241 M126.040147,24.745 C126.052083,22.9470115 125.805571,21.1567032 125.308235,19.4294304 C124.863037,17.8564945 124.098639,16.3930471 123.063088,15.1310759 C122.026983,13.9015333 120.72592,12.9248004 119.258382,12.2748101 C117.564178,11.545315 115.733957,11.1889361 113.891029,11.2296835 C112.055941,11.1871642 110.233401,11.5436888 108.548382,12.2748101 C107.095452,12.9257638 105.810699,13.9029428 104.793088,15.1310759 C103.768511,16.4003323 103.005346,17.8614191 102.547941,19.4294304 C102.03386,21.153632 101.778846,22.9452142 101.791324,24.745 C101.77552,26.5307677 102.030652,28.3085364 102.547941,30.0171519 C103.012459,31.5672039 103.775242,33.0107004 104.793088,34.2658861 C105.806786,35.4919945 107.093094,36.4618577 108.548382,37.0973418 C110.237808,37.811592 112.058458,38.1592921 113.891029,38.1176582 C115.731453,38.1574986 117.559795,37.8099368 119.258382,37.0973418 C120.728236,36.462808 122.030839,35.493413 123.063088,34.2658861 C124.091883,33.0180253 124.855895,31.5722032 125.308235,30.0171519 C125.808655,28.3053885 126.055272,26.5289397 126.040147,24.745" id="Shape"></path>
                <path d="M136.296176,43.1075949 C130.863971,42.3105696 129.696618,39.7892405 131.25,37.6152532 C131.632126,37.7278388 132.021,37.815886 132.414265,37.8788608 C135.626029,38.3502532 138.220147,37.6462658 140.666029,38.0060127 C144.828971,38.6262658 144.260735,44.2736709 136.296176,43.1075949 M137.861912,16.7282278 C140.474559,16.7282278 142.185441,18.3253797 142.185441,21.1320253 C142.185441,23.8921519 140.474559,25.3900633 137.861912,25.3900633 C135.341912,25.3900633 133.488971,23.9386709 133.488971,21.1320253 C133.488971,18.375 135.199853,16.7282278 137.861912,16.7282278 M141.641912,32.7400633 C138.609265,32.2965823 137.126912,32.9726582 135.045441,32.6687342 C133.1925,32.3989241 132.781765,31.2297468 133.346912,30.2838608 C133.612231,30.3777479 133.882315,30.4574587 134.156029,30.5226582 C135.368119,30.8239047 136.613319,30.969791 137.861912,30.9568354 C143.707941,30.9568354 148.785,27.0275316 148.460735,21.1320253 C148.235294,16.9018987 146.073529,14.4984177 144.220588,13.2020886 C146.478088,9.6728481 149.902941,10.1566456 151.694118,8.37341772 C152.929412,7.15462025 153.262941,2.79113924 148.550294,2.97721519 C144.174265,3.13848101 142.682647,8.11911392 142.083529,12.0360127 L142.083529,12.0360127 C140.744095,11.4879897 139.30805,11.217925 137.861912,11.2420886 C136.38502,11.2352121 134.919464,11.5011765 133.538382,12.0267089 L133.538382,12.0267089 C132.948529,8.10981013 131.453824,3.13848101 127.080882,2.97721519 C122.368235,2.79113924 122.714118,7.15462025 123.937059,8.37341772 C125.722059,10.150443 129.128382,9.67594937 131.373529,13.1679747 C128.735156,14.9394473 127.170365,17.9328002 127.216765,21.1196203 C127.216765,23.426962 127.818971,25.4303797 128.933824,27.0120253 C126.880147,28.9068987 126.463235,32.2314557 127.414412,34.3558228 C122.782059,39.0077215 124.072941,46.900443 135.524118,48.5782278 C150.78,50.8142405 153.185735,34.4147468 141.645,32.724557" id="Shape"></path>
                <path d="M18.1464706,24.3542405 C17.6530831,23.7654931 17.0485227,23.2806473 16.3676471,22.9276582 C15.6809023,22.5711995 14.9555255,22.2954339 14.2058824,22.1058228 C13.4297059,21.9135443 12.6947059,21.7212658 12.0008824,21.5289873 C11.4419118,21.3739241 10.9045588,21.2188608 10.3795588,21.0979114 L9.98735294,20.9955696 L9.95647059,20.9955696 C9.80205882,20.9552532 9.64764706,20.9118354 9.52102941,20.8591139 L9.46235294,20.8343038 C9.34098682,20.7886159 9.22239994,20.7358033 9.10720588,20.6761392 L9.10720588,20.6761392 C8.88399657,20.5583873 8.68326335,20.4019527 8.51426471,20.2140506 L8.51426471,20.2140506 C8.24916102,19.9158803 8.10579659,19.5282705 8.11279412,19.1286076 C8.10445871,18.7743996 8.25120148,18.4343336 8.51426471,18.1982278 L8.51426471,18.1982278 L8.58220588,18.1455063 C8.61786361,18.1157666 8.654968,18.0878209 8.69338235,18.0617722 C8.73970588,18.0307595 8.78911765,18.0059494 8.83852941,17.978038 C8.88794118,17.9501266 8.95279412,17.9222152 9.01455882,17.8974051 C9.07632353,17.8725949 9.14426471,17.8477848 9.21529412,17.8260759 C9.28632353,17.8043671 9.37897059,17.779557 9.46852941,17.7578481 L9.60441176,17.7299367 C9.73720588,17.7051266 9.87617647,17.686519 10.0244118,17.6741139 L10.1448529,17.6741139 C10.3116176,17.6741139 10.4845588,17.6555063 10.6698529,17.6555063 L10.6698529,17.6555063 C12.1038345,17.6527134 13.4979103,18.1295502 14.6320588,19.0107595 L14.6320588,19.0107595 L18.8011765,14.7589241 C18.165579,14.1797007 17.4781047,13.6606217 16.7475,13.2082911 L16.6270588,13.136962 C16.3769118,12.985 16.1236765,12.8268354 15.8611765,12.6965823 C15.6666176,12.5942405 15.4627941,12.5012025 15.2620588,12.4050633 C15.1416176,12.3492405 15.0273529,12.2841139 14.9038235,12.2313924 C13.5248076,11.6066144 12.0313361,11.2770868 10.5185294,11.2637975 L10.5185294,11.2637975 C10.1726471,11.2637975 9.83294118,11.2637975 9.49632353,11.3041139 L9.49632353,11.3041139 C8.61711994,11.3717467 7.7475453,11.532881 6.90220588,11.7848101 C5.8032168,12.100785 4.77550082,12.6273424 3.87573529,13.335443 C3.00640562,14.0232899 2.3023908,14.898807 1.81588235,15.8970886 C1.29418522,17.0060373 1.03723213,18.2218919 1.06544118,19.448038 C1.04503055,20.4720591 1.19213301,21.4925013 1.50088235,22.4686709 C1.75763062,23.2559394 2.15186706,23.991032 2.66514706,24.639557 C3.14551038,25.2344224 3.73856404,25.7277325 4.41,26.0909494 C5.09770294,26.4656729 5.83045348,26.7502125 6.59029412,26.9375949 C7.39632353,27.1608861 8.13441176,27.3655696 8.84161765,27.5423418 L10.8088235,28.0509494 C12.0688235,28.4044937 12.6988235,28.9379114 12.6988235,29.645 C12.6988235,30.9971519 11.5664706,31.6742616 9.30176471,31.6763291 C9.02588235,31.6763291 8.75514706,31.6639241 8.48955882,31.6391139 C6.70654865,31.4839728 5.04405501,30.6707642 3.82323529,29.3565823 L0,34.5760127 C0.735654355,35.1697761 1.51279803,35.7097499 2.32544118,36.1917722 C3.04822677,36.6191446 3.81044543,36.9753781 4.60147059,37.2555063 C5.39568091,37.5331582 6.21637795,37.7275061 7.05044118,37.835443 C8.00612903,37.955574 8.968641,38.0125531 9.93176471,38.0060127 L9.93176471,38.0060127 C11.171627,38.0090358 12.4046734,37.8218343 13.5882353,37.4508861 C14.7242599,37.1044002 15.7854271,36.5468566 16.7166176,35.8072152 C16.7691176,35.7668987 16.8123529,35.7172785 16.8648529,35.676962 C16.9945588,35.5684177 17.1211765,35.4567722 17.2416176,35.3389241 C17.3620588,35.2210759 17.4207353,35.1621519 17.5072059,35.0722152 C17.5936765,34.9822785 17.6585294,34.9109494 17.7295588,34.8272152 C18.1834178,34.3170026 18.5743299,33.7536716 18.8938235,33.1494304 C19.4576705,32.0360963 19.740805,30.8008086 19.7183824,29.551962 C19.7383804,28.5287633 19.5998131,27.5086645 19.3076471,26.5282278 C19.0636902,25.7355122 18.6682307,24.998139 18.1433824,24.3573418" id="Shape"></path>
                <path d="M167.691176,26.9810127 C167.480879,26.1717329 167.115869,25.4112456 166.616471,24.7418987 C166.152668,24.1291117 165.573456,23.61384 164.911765,23.2253797 C164.229558,22.8320868 163.504089,22.51986 162.75,22.295 C161.977941,22.0675738 161.247059,21.8411814 160.557353,21.6158228 C160.001471,21.4328481 159.467206,21.2653797 158.945294,21.1072152 L158.556176,20.9893671 L158.525294,20.9893671 C158.370882,20.9428481 158.216471,20.8901266 158.092941,20.8343038 L158.034265,20.8063924 C157.914694,20.7541691 157.798181,20.6951495 157.685294,20.6296203 L157.685294,20.6296203 C157.465626,20.5016211 157.270137,20.3357517 157.107794,20.1396203 L157.107794,20.1396203 C156.852916,19.8283187 156.724917,19.4316214 156.749559,19.0293671 C156.752854,18.6683097 156.9158,18.3274058 157.194265,18.0989873 L157.194265,18.0989873 C157.215882,18.0803797 157.240588,18.0648734 157.265294,18.0493671 C157.302766,18.0201504 157.341955,17.9932241 157.382647,17.9687342 C157.43171,17.9402624 157.48222,17.9143833 157.533971,17.8912025 C157.589559,17.8663924 157.651324,17.8415823 157.713088,17.8198734 C157.774853,17.7981646 157.845882,17.7764557 157.92,17.7547468 C157.994118,17.733038 158.086765,17.7144304 158.179412,17.6989241 L158.318382,17.6772152 C158.451176,17.6586076 158.593235,17.6462025 158.744559,17.64 L158.868088,17.64 C159.034853,17.64 159.207794,17.64 159.396176,17.64 L159.396176,17.64 C160.84751,17.7128109 162.232703,18.2718467 163.330588,19.2278481 L163.330588,19.2278481 L167.691176,15.1217722 C167.076027,14.5139985 166.406102,13.9647927 165.69,13.4812025 L165.572647,13.4036709 C165.328676,13.2393038 165.078529,13.078038 164.822206,12.9260759 C164.630735,12.8144304 164.43,12.7120886 164.229265,12.6159494 C164.111912,12.5539241 163.997647,12.4856962 163.877206,12.4236709 C162.517168,11.7336358 161.028983,11.3354641 159.507353,11.2544937 L159.507353,11.2544937 C159.161471,11.2389873 158.818676,11.2544937 158.478971,11.2544937 L158.478971,11.2544937 C157.597092,11.2794848 156.720312,11.3979909 155.863235,11.608038 C154.741944,11.8731623 153.682617,12.354504 152.744118,13.0253165 C151.840058,13.6772069 151.093802,14.5251904 150.560735,15.5063291 C149.981034,16.5970263 149.66374,17.8088964 149.634265,19.0448734 C149.569502,20.0742666 149.673836,21.1073469 149.943088,22.1027215 C150.165929,22.9073144 150.529861,23.6655545 151.017794,24.3418354 C151.473283,24.9657616 152.047442,25.4928015 152.707059,25.8924684 C153.384431,26.3000187 154.110908,26.618933 154.868824,26.8414557 C155.668676,27.101962 156.412941,27.3407595 157.107794,27.5516456 L159.059559,28.1501899 C160.294853,28.5626582 160.9125,29.1301899 160.890882,29.8403797 C160.831176,31.2008017 159.664853,31.8303586 157.391912,31.7290506 C157.113971,31.7290506 156.845294,31.6918354 156.579706,31.6546203 L156.579706,31.6546203 C156.289412,31.6143038 155.992941,31.5553797 155.699559,31.4840506 L155.699559,31.4840506 C155.535882,31.4406329 155.366029,31.4003165 155.208529,31.3506962 C153.48555,30.8057362 152.023161,29.64193 151.101176,28.081962 L146.231029,32.3772152 C146.82488,33.1262258 147.475335,33.828157 148.176618,34.4767722 C148.797796,35.0573422 149.473108,35.5766076 150.193235,36.0274051 C150.591318,36.2743291 151.003827,36.4969884 151.428529,36.6941772 C151.755882,36.8616456 152.086324,37.0043038 152.419853,37.1500633 C153.206213,37.4641293 154.022742,37.6958837 154.856471,37.8416456 L154.939853,37.8416456 L155.273382,37.9191772 L155.273382,37.9191772 C155.415441,37.9501899 155.554412,37.9718987 155.696471,37.9967089 L155.696471,37.9563924 C156.328529,38.0390928 157.011029,38.0969831 157.743971,38.1300633 L157.743971,38.1300633 C158.992046,38.1896133 160.241839,38.0567854 161.449853,37.7362025 C162.607346,37.4399329 163.698987,36.9275794 164.667794,36.2258861 C164.720294,36.1855696 164.769706,36.1421519 164.822206,36.1018354 C164.958088,35.9963924 165.087794,35.8909494 165.2175,35.7917089 C165.347206,35.6924684 165.405882,35.6211392 165.495441,35.5343038 C165.585,35.4474684 165.652941,35.3792405 165.730147,35.2986076 C166.206138,34.8059246 166.620925,34.2571359 166.965441,33.6642405 C167.580907,32.5692593 167.919195,31.3392555 167.950588,30.0822785 C168.026557,29.0412587 167.939017,27.9947177 167.691176,26.9810127" id="Shape"></path>
                <path d="M49.1029412,0 C47.9390608,0.00819618944 46.8260954,0.480372131 46.0088994,1.31264828 C45.1917035,2.14492443 44.7372218,3.26912051 44.7454412,4.43791139 C44.7454412,6.85464654 46.6963604,8.81379747 49.1029412,8.81379747 C51.509522,8.81379747 53.4604412,6.85464654 53.4604412,4.43791139 C53.4686606,3.26912051 53.0141789,2.14492443 52.1969829,1.31264828 C51.3797869,0.480372131 50.2668216,0.00819618944 49.1029412,4.89264044e-16" id="Shape"></path>
                <path d="M93.4747059,31.6701266 C93.1247059,31.7362869 92.6779412,31.7931435 92.1344118,31.8406962 C91.5908824,31.8882489 91,31.9130591 90.3617647,31.9151266 C88.4141176,31.9151266 86.9451471,31.2400844 85.9548529,29.89 C84.9645588,28.5399156 84.4694118,26.7432489 84.4694118,24.5 C84.4694118,19.8481013 86.1617647,17.5221519 89.5464706,17.5221519 C90.2830031,17.5232264 91.0161473,17.6222952 91.7267647,17.8167722 C92.3435844,17.9685319 92.933238,18.2154319 93.4747059,18.5486709 L93.4747059,31.6701266 L93.4747059,31.6701266 Z M93.4747059,12.4981013 C92.673397,12.1397065 91.8385436,11.8623256 90.9825,11.6700633 C90.0696592,11.4696981 89.1374567,11.371924 88.2030882,11.3785443 C86.5692742,11.346213 84.9488204,11.6799348 83.4595588,12.355443 C82.1136259,12.9841617 80.9324305,13.9197248 80.01,15.0876582 C79.0446226,16.3365712 78.329381,17.7615054 77.9038235,19.2836709 C77.4058907,21.0444611 77.1635412,22.8681851 77.1842647,24.698481 C77.1589696,26.5894053 77.4588104,28.4705309 78.0705882,30.2590506 C79.1398819,33.4592168 81.5982775,35.9987173 84.7535294,37.1624684 C86.531625,37.8233302 88.4166452,38.1461874 90.3123529,38.114557 C91.175,38.114557 92.0777941,38.0742405 93.0207353,37.9936076 C93.9636765,37.9129747 94.8901471,37.8095992 95.8001471,37.683481 C96.7101471,37.5532278 97.58,37.3981646 98.4097059,37.2182911 C99.2394118,37.0384177 99.9744118,36.851308 100.614706,36.656962 L100.614706,2.75392405 L93.4747059,3.90759494 L93.4747059,12.4981013 Z" id="Shape"></path>
                <path d="M31.9817647,31.7724684 C31.2462663,31.7711201 30.5141785,31.6720538 29.8045588,31.4778481 C29.1877391,31.3260883 28.5980855,31.0791883 28.0566176,30.7459494 L28.0566176,17.6244937 C28.4055882,17.5593671 28.8533824,17.5035443 29.3969118,17.4539241 C29.9404412,17.4043038 30.5272059,17.3670886 31.1664706,17.3670886 C33.1141176,17.3670886 34.5841176,18.0421308 35.5764706,19.3922152 C36.5688235,20.7422996 37.0629412,22.5431013 37.0588235,24.7946203 C37.0588235,29.446519 35.3664706,31.7724684 31.9817647,31.7724684 M40.8913235,14.8178481 C39.7278851,13.6344276 38.3222015,12.7191001 36.7716176,12.1352532 C34.9935034,11.4744613 33.1084964,11.1516064 31.2127941,11.1831646 C30.3501471,11.1831646 29.4473529,11.223481 28.5044118,11.3041139 C27.5614706,11.3847468 26.635,11.4881224 25.725,11.6142405 C24.815,11.7444937 23.9451471,11.899557 23.1154412,12.0794304 C22.2857353,12.2593038 21.5507353,12.4464135 20.9104412,12.6407595 L20.9104412,46.5406962 L28.0504412,45.3870253 L28.0504412,36.796519 C28.85175,37.1549137 29.6866034,37.4322946 30.5426471,37.624557 C31.4555405,37.8245933 32.3877065,37.9223636 33.3220588,37.9160759 C34.9558634,37.948303 36.5762946,37.6145859 38.0655882,36.9391772 C39.4112813,36.3100672 40.5923935,35.37457 41.5151471,34.206962 C42.4805908,32.9580911 43.1958392,31.5331433 43.6213235,30.0109494 C44.1189606,28.2500975 44.3613044,26.4264167 44.3408824,24.5961392 C44.3661775,22.705215 44.0663366,20.8240893 43.4545588,19.0355696 C42.9137233,17.4592407 42.0392575,16.0192773 40.8913235,14.8147468" id="Shape"></path>
            </g>
        </g>
    </g>
</svg>