<?xml version="1.0" encoding="UTF-8"?>
<svg width="30px" height="25px" viewBox="0 0 30 25" version="1.1" xmlns="http://www.w3.org/2000/svg" xmlns:xlink="http://www.w3.org/1999/xlink">
    <!-- Generator: Sketch 47.1 (45422) - http://www.bohemiancoding.com/sketch -->
    <title>twitter</title>
    <desc>Created with Sketch.</desc>
    <defs></defs>
    <g id="Home" stroke="none" stroke-width="1" fill="none" fill-rule="evenodd">
        <g id="01" transform="translate(-1099.000000, -2305.000000)" fill="#E3E3E3">
            <g id="twitter" transform="translate(1099.000000, 2305.000000)">
                <path d="M29.846,2.86 C28.727,3.358 27.546,3.668 26.302,3.855 C27.546,3.109 28.54,1.927 28.976,0.497 C27.794,1.181 26.489,1.678 25.058,1.989 C24.001,0.746 22.385,0 20.644,0 C17.286,0 14.55,2.735 14.55,6.093 C14.55,6.59 14.612,7.026 14.737,7.461 C9.575,7.275 5.099,4.787 2.052,1.119 C1.554,2.051 1.243,3.047 1.243,4.228 C1.243,6.342 2.301,8.207 3.98,9.327 C2.985,9.264 2.052,9.016 1.181,8.58 L1.181,8.643 C1.181,11.627 3.296,14.114 6.094,14.674 C5.596,14.798 5.036,14.86 4.477,14.86 C4.104,14.86 3.669,14.798 3.296,14.736 C4.104,17.161 6.343,18.964 9.016,18.964 C6.902,20.581 4.29,21.576 1.43,21.576 C0.933,21.576 0.435,21.576 0,21.514 C2.736,23.255 5.907,24.25 9.389,24.25 C20.644,24.25 26.8,14.923 26.8,6.839 L26.8,6.031 C27.981,5.161 29.038,4.104 29.846,2.86" id="Fill-4"></path>
            </g>
        </g>
    </g>
</svg>